<?xml version="1.0" standalone="no"?>
<!DOCTYPE svg PUBLIC "-//W3C//DTD SVG 20010904//EN"
 "http://www.w3.org/TR/2001/REC-SVG-20010904/DTD/svg10.dtd">
<svg version="1.0" xmlns="http://www.w3.org/2000/svg"
 width="1080.000000pt" height="1920.000000pt" viewBox="0 0 1080.000000 1920.000000"
 preserveAspectRatio="xMidYMid meet">
<metadata>
Created by potrace 1.16, written by Peter Selinger 2001-2019
</metadata>
<g transform="translate(0.000000,1920.000000) scale(0.100000,-0.100000)"
fill="#000000" stroke="none">
<path d="M511 18204 c-13 -9 -29 -32 -37 -50 -21 -50 -21 -16858 0 -16908 8
-18 24 -41 37 -50 22 -15 412 -16 4952 -16 4246 0 4932 2 4956 14 15 8 32 26
39 41 17 38 17 16892 0 16930 -7 15 -24 33 -39 41 -24 12 -710 14 -4956 14
-4540 0 -4930 -1 -4952 -16z m9859 -8504 l0 -8420 -4905 0 -4905 0 0 8420 0
8420 4905 0 4905 0 0 -8420z"/>
<path d="M1720 17760 c-20 -20 -20 -31 -20 -3449 0 -3251 1 -3430 18 -3450
l17 -21 1049 -3 1050 -2 148 -455 c81 -250 148 -458 148 -462 0 -5 -361 -8
-803 -8 l-802 0 -240 -317 c-132 -175 -363 -480 -513 -679 l-273 -362 512
-658 511 -659 62 0 c33 0 174 4 311 8 l250 8 -80 -44 c-767 -417 -1343 -1059
-1574 -1753 -141 -422 -166 -825 -80 -1258 242 -1214 1418 -2211 2991 -2535
375 -78 661 -105 1083 -105 422 0 708 27 1083 105 1294 266 2331 988 2793
1944 193 399 279 868 238 1291 -84 864 -624 1654 -1508 2202 l-136 84 175 -6
c96 -3 274 -9 395 -12 l220 -6 154 198 c85 110 194 249 241 309 47 61 143 182
211 270 330 422 411 525 425 536 12 10 12 14 1 28 -8 9 -171 250 -362 536
-192 286 -399 594 -460 685 l-112 165 -626 16 c-345 9 -629 18 -631 20 -3 3
62 209 144 459 l148 455 696 3 696 2 15 23 c13 21 15 396 13 3455 -3 2799 -5
3433 -16 3444 -11 11 -705 13 -3777 16 -3756 2 -3765 2 -3785 -18z m7530
-3450 l0 -3420 -675 0 c-371 0 -675 3 -675 7 0 3 18 62 40 130 43 132 44 157
5 175 -47 21 -66 -6 -118 -166 l-48 -146 -1924 0 -1924 0 -57 178 c-62 196
-74 222 -106 222 -28 0 -58 -28 -58 -53 0 -10 23 -89 50 -175 28 -86 50 -159
50 -164 0 -4 -463 -8 -1030 -8 l-1030 0 0 3420 0 3420 3750 0 3750 0 0 -3420z
m-1492 -3484 c-2 -8 -68 -215 -148 -460 l-145 -446 -255 6 c-140 2 -274 7
-297 9 l-41 4 -204 -267 c-112 -147 -291 -382 -398 -522 -107 -140 -245 -321
-307 -403 l-114 -147 296 -436 c163 -240 294 -438 291 -441 -2 -3 -87 7 -188
21 -256 36 -369 46 -638 53 -224 5 -530 -6 -695 -27 -38 -5 -71 -7 -73 -5 -3
3 579 818 602 843 10 10 -20 57 -153 236 -91 123 -305 413 -476 644 l-310 421
-127 1 -127 0 -126 388 c-69 213 -136 416 -147 452 -12 36 -23 71 -26 78 -3 9
381 12 1903 12 1646 0 1906 -2 1903 -14z m-549 -940 c128 -3 235 -7 237 -9 2
-1 -19 -72 -47 -157 -54 -163 -55 -190 -9 -205 44 -14 62 14 119 186 29 90 56
167 60 171 3 4 258 0 566 -7 308 -8 587 -15 620 -15 l60 0 162 -243 c210 -313
556 -828 661 -983 45 -67 82 -128 82 -135 0 -8 -33 -55 -73 -105 -39 -50 -108
-137 -152 -194 -44 -57 -98 -126 -120 -154 -93 -118 -350 -448 -418 -535 -39
-51 -88 -112 -107 -135 -19 -24 -57 -71 -83 -106 l-49 -63 -271 8 c-150 4
-299 8 -332 10 -33 2 -157 6 -275 9 -118 4 -352 11 -520 16 -168 5 -349 11
-403 12 -73 2 -102 7 -111 18 -8 8 -77 110 -155 225 -77 116 -158 235 -178
265 -21 30 -110 160 -197 289 -87 129 -205 304 -263 389 -97 141 -105 157 -93
176 17 27 891 1176 942 1238 35 42 41 46 76 42 20 -2 142 -6 271 -8z m-3022
-139 c22 -70 47 -134 53 -142 27 -32 90 -4 90 40 0 11 -16 68 -35 125 -19 57
-35 105 -35 107 0 2 47 3 104 3 l104 0 118 -157 c65 -87 152 -204 193 -260 42
-56 117 -158 167 -225 50 -68 131 -177 179 -243 49 -66 114 -154 145 -195 31
-41 73 -99 93 -128 l37 -52 -222 -308 c-122 -169 -249 -345 -283 -392 -34 -47
-142 -196 -240 -333 -117 -163 -185 -249 -199 -252 -11 -2 -255 -11 -541 -20
-495 -15 -629 -19 -915 -30 -69 -3 -197 -7 -286 -11 l-161 -6 -59 77 c-32 43
-70 92 -84 110 -14 17 -41 52 -60 77 -19 25 -89 115 -155 199 -543 698 -638
823 -629 835 5 7 90 119 189 249 99 130 196 259 215 285 19 27 104 140 189
252 85 112 208 274 273 360 l118 158 628 3 c345 1 704 2 797 2 l170 0 42 -128z
m1773 -2017 c139 -13 451 -57 500 -70 31 -9 50 -32 179 -224 l144 -214 121 -6
c67 -3 292 -11 501 -16 209 -6 394 -12 412 -14 39 -5 207 -101 383 -220 370
-249 699 -571 919 -901 466 -696 565 -1481 284 -2234 -135 -364 -353 -692
-668 -1006 -423 -424 -961 -746 -1600 -960 -1360 -456 -2936 -315 -4125 368
-469 269 -895 655 -1158 1050 -467 699 -567 1482 -285 2236 135 364 353 692
668 1006 272 273 617 522 960 692 l80 40 200 7 c779 26 1017 36 1025 41 5 3
66 85 136 183 70 97 136 187 146 198 21 23 111 37 364 54 153 11 664 4 814
-10z"/>
<path d="M2280 17560 c-20 -20 -20 -29 -18 -1300 2 -1033 5 -1281 16 -1292 11
-11 289 -13 1461 -16 1416 -2 1449 -2 1472 17 l24 19 0 1277 0 1277 -24 19
c-23 19 -60 19 -1467 19 -1433 0 -1444 0 -1464 -20z m2905 -1295 l0 -1260
-1437 -3 -1438 -2 0 1265 0 1265 1438 -2 1437 -3 0 -1260z"/>
<path d="M2490 16625 l0 -205 135 0 135 0 0 25 0 25 -105 0 -105 0 0 180 0
180 -30 0 -30 0 0 -205z"/>
<path d="M4910 16755 c0 -33 -4 -45 -15 -45 -19 0 -20 -36 -1 -47 10 -6 15
-35 18 -104 3 -109 19 -139 70 -139 23 0 28 4 28 24 0 15 -7 26 -20 29 -18 5
-20 14 -20 96 0 84 1 91 20 91 15 0 20 7 20 25 0 18 -5 25 -20 25 -17 0 -20 7
-20 45 0 43 -1 45 -30 45 -29 0 -30 -2 -30 -45z"/>
<path d="M2883 16705 c-48 -21 -66 -64 -61 -153 3 -69 6 -76 36 -103 26 -23
42 -29 80 -29 82 0 122 48 122 145 0 77 -21 122 -64 140 -43 18 -71 18 -113 0z
m105 -63 c18 -24 16 -131 -5 -154 -16 -18 -59 -24 -79 -10 -32 21 -44 95 -24
147 17 44 78 54 108 17z"/>
<path d="M3193 16710 c-40 -16 -55 -64 -51 -156 3 -71 6 -86 27 -108 29 -31
93 -36 123 -9 17 15 18 14 18 -19 0 -21 -7 -41 -18 -51 -23 -21 -70 -22 -92
-2 -15 14 -18 13 -33 -3 -16 -18 -16 -20 2 -36 28 -25 90 -31 134 -12 58 24
67 57 67 241 l0 155 -30 0 c-16 0 -30 -5 -30 -10 0 -6 -13 -4 -30 5 -32 17
-54 18 -87 5z m101 -56 c20 -19 23 -153 4 -172 -17 -17 -73 -15 -88 3 -15 18
-25 95 -16 129 13 52 67 74 100 40z"/>
<path d="M3512 16705 c-46 -20 -65 -70 -60 -158 3 -63 7 -72 36 -98 26 -23 42
-29 78 -29 44 0 104 22 104 39 0 20 -29 32 -49 22 -36 -20 -78 -13 -100 15
-38 48 -30 54 74 54 106 0 105 -1 84 72 -22 82 -92 117 -167 83z"/>
<path d="M3853 16700 c-27 -16 -33 -17 -33 -5 0 9 -10 15 -25 15 l-25 0 0
-145 0 -145 25 0 25 0 0 103 c0 118 9 140 58 140 56 0 62 -14 62 -134 l0 -109
30 0 29 0 3 112 c3 112 3 113 30 126 22 10 32 10 50 1 35 -19 38 -27 38 -136
l0 -103 25 0 25 0 0 119 c0 110 -2 122 -22 146 -14 15 -38 28 -59 31 -29 5
-41 1 -68 -22 -29 -24 -35 -26 -45 -13 -14 20 -50 39 -73 39 -10 0 -33 -9 -50
-20z"/>
<path d="M4322 16705 c-46 -20 -65 -70 -60 -158 3 -63 7 -72 36 -98 26 -23 42
-29 78 -29 44 0 104 22 104 39 0 20 -29 32 -49 22 -36 -20 -78 -13 -100 15
-38 48 -30 54 74 54 106 0 105 -1 84 72 -22 82 -92 117 -167 83z"/>
<path d="M4673 16700 c-27 -16 -33 -17 -33 -5 0 9 -10 15 -25 15 l-25 0 0
-145 0 -145 25 0 25 0 0 103 c0 118 9 140 59 140 55 0 66 -21 69 -138 4 -103
4 -105 28 -105 24 0 24 0 24 110 0 121 -10 154 -51 176 -37 19 -58 18 -96 -6z"/>
<path d="M5822 17564 l-22 -15 0 -1284 0 -1284 22 -15 c20 -14 176 -16 1465
-16 1430 0 1443 0 1463 20 20 20 20 33 20 1295 0 1262 0 1275 -20 1295 -20 20
-33 20 -1463 20 -1289 0 -1445 -2 -1465 -16z m2898 -1299 l0 -1265 -1435 0
-1435 0 0 1265 0 1265 1435 0 1435 0 0 -1265z"/>
<path d="M6410 16625 l0 -205 30 0 30 0 0 80 0 80 60 0 c114 0 160 37 160 128
0 48 -4 58 -34 88 l-34 34 -106 0 -106 0 0 -205z m209 129 c26 -33 27 -65 2
-95 -15 -19 -30 -24 -85 -27 l-66 -4 0 76 0 76 64 0 c58 0 67 -3 85 -26z"/>
<path d="M7320 16755 c0 -33 -4 -45 -15 -45 -19 0 -20 -36 -1 -47 10 -6 15
-35 18 -104 3 -109 19 -139 70 -139 23 0 28 4 28 24 0 15 -7 26 -20 29 -18 5
-20 14 -20 96 0 84 1 91 20 91 15 0 20 7 20 25 0 18 -5 25 -20 25 -17 0 -20 7
-20 45 0 43 -1 45 -30 45 -29 0 -30 -2 -30 -45z"/>
<path d="M6804 16706 c-42 -18 -49 -33 -24 -46 14 -7 26 -8 39 0 48 25 101 1
101 -46 0 -23 -3 -24 -63 -24 -39 0 -70 -6 -84 -15 -46 -32 -36 -127 14 -146
32 -12 90 -11 114 1 13 7 19 7 19 0 0 -5 14 -10 30 -10 l30 0 0 100 c0 123
-14 164 -64 185 -43 18 -71 18 -112 1z"/>
<path d="M7153 16700 c-27 -16 -33 -17 -33 -5 0 9 -10 15 -25 15 l-25 0 0
-145 0 -145 25 0 c25 0 25 0 25 99 0 55 3 107 6 116 9 23 49 36 78 25 19 -7
28 -4 42 12 18 19 18 20 -1 34 -26 19 -54 18 -92 -6z"/>
<path d="M7702 16705 c-46 -20 -65 -70 -60 -158 3 -63 7 -72 36 -98 26 -23 42
-29 78 -29 44 0 104 22 104 39 0 20 -29 32 -49 22 -36 -20 -78 -13 -100 15
-38 48 -30 54 74 54 106 0 105 -1 84 72 -22 82 -92 117 -167 83z"/>
<path d="M8014 16710 c-31 -12 -54 -49 -54 -86 0 -41 39 -74 89 -75 77 -2 110
-29 81 -64 -17 -20 -99 -19 -128 1 -18 12 -26 13 -37 4 -24 -20 -18 -37 19
-54 66 -31 183 -14 200 29 3 9 6 32 6 51 0 49 -27 72 -98 80 -73 8 -86 15 -77
43 9 29 51 37 102 19 40 -14 43 -14 60 4 15 17 15 21 3 29 -41 26 -125 36
-166 19z"/>
<path d="M5953 16006 c-49 -22 -66 -65 -61 -154 3 -69 6 -76 36 -103 27 -24
41 -29 86 -29 39 0 60 6 80 21 26 20 26 22 10 40 -16 17 -19 18 -40 4 -32 -21
-77 -19 -99 5 -23 25 -30 107 -13 139 19 35 60 46 100 27 30 -16 33 -15 51 3
19 19 19 19 -7 36 -35 24 -104 29 -143 11z"/>
<path d="M6243 16005 c-48 -21 -66 -64 -61 -153 3 -69 6 -76 36 -103 26 -23
42 -29 80 -29 82 0 122 48 122 145 0 77 -21 122 -64 140 -43 18 -71 18 -113 0z
m105 -63 c18 -24 16 -131 -5 -154 -16 -18 -59 -24 -79 -10 -32 21 -44 95 -24
147 17 44 78 54 108 17z"/>
<path d="M6593 16000 c-27 -16 -33 -17 -33 -5 0 9 -10 15 -25 15 l-25 0 0
-145 0 -145 25 0 25 0 0 103 c0 118 9 140 58 140 56 0 62 -14 62 -134 l0 -109
30 0 29 0 3 112 c3 112 3 113 30 126 22 10 32 10 50 1 35 -19 38 -27 38 -136
l0 -103 25 0 25 0 0 119 c0 110 -2 122 -22 146 -14 15 -38 28 -59 31 -29 5
-41 1 -68 -22 -29 -24 -35 -26 -45 -13 -14 20 -50 39 -73 39 -10 0 -33 -9 -50
-20z"/>
<path d="M7093 16000 c-27 -16 -33 -17 -33 -5 0 9 -10 15 -25 15 l-25 0 0
-145 0 -145 25 0 25 0 0 103 c0 118 9 140 58 140 56 0 62 -14 62 -134 l0 -109
30 0 29 0 3 112 c3 112 3 113 30 126 22 10 32 10 50 1 35 -19 38 -27 38 -136
l0 -103 25 0 25 0 0 119 c0 110 -2 122 -22 146 -14 15 -38 28 -59 31 -29 5
-41 1 -68 -22 -29 -24 -35 -26 -45 -13 -14 20 -50 39 -73 39 -10 0 -33 -9 -50
-20z"/>
<path d="M7913 16000 c-27 -16 -33 -17 -33 -5 0 9 -10 15 -25 15 l-25 0 0
-145 0 -145 25 0 25 0 0 103 c0 118 9 140 59 140 55 0 66 -21 69 -138 4 -103
4 -105 28 -105 24 0 24 0 24 110 0 121 -10 154 -51 176 -37 19 -58 18 -96 -6z"/>
<path d="M8212 16005 c-46 -20 -65 -70 -60 -158 3 -63 7 -72 36 -98 26 -23 42
-29 78 -29 44 0 104 22 104 39 0 20 -29 32 -49 22 -36 -20 -78 -13 -100 15
-38 48 -30 54 74 54 106 0 105 -1 84 72 -22 82 -92 117 -167 83z"/>
<path d="M8514 16010 c-31 -12 -54 -49 -54 -86 0 -41 39 -74 89 -75 77 -2 110
-29 81 -64 -17 -20 -99 -19 -128 1 -18 12 -26 13 -37 4 -24 -20 -18 -37 19
-54 66 -31 183 -14 200 29 3 9 6 32 6 51 0 49 -27 72 -98 80 -73 8 -86 15 -77
43 9 29 51 37 102 19 40 -14 43 -14 60 4 15 17 15 21 3 29 -41 26 -125 36
-166 19z"/>
<path d="M7510 15894 c0 -114 0 -116 29 -145 34 -34 93 -40 123 -12 17 15 18
15 18 0 0 -12 9 -17 30 -17 l30 0 0 145 0 145 -30 0 -30 0 0 -110 c0 -119 -5
-130 -64 -130 -43 0 -56 33 -56 142 0 98 0 98 -25 98 l-25 0 0 -116z"/>
<path d="M2293 14350 c-14 -6 -24 -21 -28 -42 -3 -18 -4 -599 -3 -1290 2
-1015 6 -1260 16 -1270 11 -11 289 -13 1461 -16 1416 -2 1449 -2 1472 17 l24
19 0 1277 0 1277 -24 19 c-23 19 -60 19 -1460 18 -807 0 -1446 -4 -1458 -9z
m2892 -1305 l0 -1260 -1437 -3 -1438 -2 0 1265 0 1265 1438 -2 1437 -3 0
-1260z"/>
<path d="M2588 13405 l-76 -206 31 3 c26 3 32 9 45 46 l14 42 88 0 87 0 13
-45 c11 -40 16 -45 41 -45 16 0 29 3 29 8 -1 4 -33 95 -73 202 -66 178 -74
195 -97 198 -24 3 -29 -6 -102 -203z"/>
<path d="M4580 13425 c0 -172 1 -186 20 -205 11 -11 33 -20 50 -20 25 0 30 4
30 24 0 18 -6 25 -22 28 -23 3 -23 5 -26 181 l-2 177 -25 0 -25 0 0 -185z"/>
<path d="M3030 13493 c-8 -3 -23 -12 -32 -21 -16 -14 -18 -13 -18 1 0 11 -8
17 -25 17 l-25 0 0 -205 0 -205 25 0 c24 0 25 2 25 76 l0 75 22 -15 c26 -18
80 -21 110 -5 45 24 65 165 33 234 -22 45 -69 65 -115 48z m52 -60 c24 -22 26
-143 2 -167 -23 -24 -70 -20 -88 6 -24 34 -21 133 4 158 24 24 57 26 82 3z"/>
<path d="M3350 13493 c-8 -3 -23 -12 -32 -21 -16 -14 -18 -13 -18 1 0 11 -8
17 -25 17 l-25 0 0 -205 0 -205 25 0 c24 0 25 2 25 76 l0 75 22 -15 c26 -18
80 -21 110 -5 45 24 65 165 33 234 -22 45 -69 65 -115 48z m52 -60 c24 -22 26
-143 2 -167 -23 -24 -70 -20 -88 6 -24 34 -21 133 4 158 24 24 57 26 82 3z"/>
<path d="M3604 13486 c-42 -18 -49 -33 -24 -46 14 -7 26 -8 39 0 48 25 101 1
101 -46 0 -23 -3 -24 -63 -24 -39 0 -70 -6 -84 -15 -46 -32 -36 -127 14 -146
32 -12 90 -11 114 1 13 7 19 7 19 0 0 -5 14 -10 30 -10 l30 0 0 100 c0 123
-14 164 -64 185 -43 18 -71 18 -112 1z"/>
<path d="M3953 13480 c-27 -16 -33 -17 -33 -5 0 9 -10 15 -25 15 l-25 0 0
-145 0 -145 25 0 c25 0 25 0 25 99 0 55 3 107 6 116 9 23 49 36 78 25 19 -7
28 -4 42 12 18 19 18 20 -1 34 -26 19 -54 18 -92 -6z"/>
<path d="M4172 13485 c-46 -20 -65 -70 -60 -158 3 -63 7 -72 36 -98 26 -23 42
-29 78 -29 44 0 104 22 104 39 0 20 -29 32 -49 22 -36 -20 -78 -13 -100 15
-38 48 -30 54 74 54 106 0 105 -1 84 72 -22 82 -92 117 -167 83z"/>
<path d="M4784 13490 c-31 -12 -54 -49 -54 -86 0 -41 39 -74 89 -75 77 -2 110
-29 81 -64 -17 -20 -99 -19 -128 1 -18 12 -26 13 -37 4 -24 -20 -18 -37 19
-54 66 -31 183 -14 200 29 3 9 6 32 6 51 0 49 -27 72 -98 80 -73 8 -86 15 -77
43 9 29 51 37 102 19 40 -14 43 -14 60 4 15 17 15 21 3 29 -41 26 -125 36
-166 19z"/>
<path d="M5822 14344 l-22 -15 0 -1284 0 -1284 22 -15 c20 -14 176 -16 1465
-16 1430 0 1443 0 1463 20 20 20 20 33 20 1295 0 1262 0 1275 -20 1295 -20 20
-33 20 -1463 20 -1289 0 -1445 -2 -1465 -16z m2898 -1299 l0 -1265 -1435 0
-1435 0 0 1265 0 1265 1435 0 1435 0 0 -1265z"/>
<path d="M6225 13601 c-55 -25 -76 -66 -82 -160 -7 -101 9 -170 48 -207 27
-26 37 -29 95 -29 63 0 67 2 100 37 41 45 45 78 11 78 -15 0 -29 -9 -36 -24
-26 -49 -85 -59 -128 -22 -26 23 -28 31 -32 110 -1 48 0 98 3 111 17 69 97 88
146 35 17 -19 38 -30 54 -30 l26 0 -20 41 c-15 29 -33 46 -63 60 -52 23 -72
23 -122 0z"/>
<path d="M7140 13535 c0 -33 -4 -45 -15 -45 -19 0 -20 -36 -1 -47 10 -6 15
-35 18 -104 3 -109 19 -139 70 -139 23 0 28 4 28 24 0 15 -7 26 -20 29 -18 5
-20 14 -20 96 0 84 1 91 20 91 15 0 20 7 20 25 0 18 -5 25 -20 25 -17 0 -20 7
-20 45 0 43 -1 45 -30 45 -29 0 -30 -2 -30 -45z"/>
<path d="M6554 13486 c-42 -18 -49 -33 -24 -46 14 -7 26 -8 39 0 48 25 101 1
101 -46 0 -23 -3 -24 -63 -24 -39 0 -70 -6 -84 -15 -46 -32 -36 -127 14 -146
32 -12 90 -11 114 1 13 7 19 7 19 0 0 -5 14 -10 30 -10 l30 0 0 100 c0 123
-14 164 -64 185 -43 18 -71 18 -112 1z"/>
<path d="M6920 13493 c-8 -3 -23 -12 -32 -21 -16 -14 -18 -13 -18 1 0 11 -8
17 -25 17 l-25 0 0 -205 0 -205 25 0 c24 0 25 2 25 76 l0 75 22 -15 c26 -18
80 -21 110 -5 45 24 65 165 33 234 -22 45 -69 65 -115 48z m52 -60 c24 -22 26
-143 2 -167 -23 -24 -70 -20 -88 6 -24 34 -21 133 4 158 24 24 57 26 82 3z"/>
<path d="M7382 13485 c-46 -20 -65 -70 -60 -158 3 -63 7 -72 36 -98 26 -23 42
-29 78 -29 44 0 104 22 104 39 0 20 -29 32 -49 22 -36 -20 -78 -13 -100 15
-38 48 -30 54 74 54 106 0 105 -1 84 72 -22 82 -92 117 -167 83z"/>
<path d="M8043 13480 c-27 -16 -33 -17 -33 -5 0 9 -10 15 -25 15 l-25 0 0
-145 0 -145 25 0 c25 0 25 0 25 99 0 55 3 107 6 116 9 23 49 36 78 25 19 -7
28 -4 42 12 18 19 18 20 -1 34 -26 19 -54 18 -92 -6z"/>
<path d="M8254 13490 c-31 -12 -54 -49 -54 -86 0 -41 39 -74 89 -75 77 -2 110
-29 81 -64 -17 -20 -99 -19 -128 1 -18 12 -26 13 -37 4 -24 -20 -18 -37 19
-54 66 -31 183 -14 200 29 3 9 6 32 6 51 0 49 -27 72 -98 80 -73 8 -86 15 -77
43 9 29 51 37 102 19 40 -14 43 -14 60 4 15 17 15 21 3 29 -41 26 -125 36
-166 19z"/>
<path d="M7630 13374 c0 -114 0 -116 29 -145 34 -34 93 -40 123 -12 17 15 18
15 18 0 0 -12 9 -17 30 -17 l30 0 0 145 0 145 -30 0 -30 0 0 -110 c0 -119 -5
-130 -64 -130 -43 0 -56 33 -56 142 0 98 0 98 -25 98 l-25 0 0 -116z"/>
<path d="M7335 8855 c-22 -8 -41 -15 -42 -15 -11 -1 -33 -67 -33 -98 0 -62 27
-87 113 -107 39 -9 80 -24 89 -32 19 -17 23 -50 10 -69 -24 -37 -107 -45 -164
-15 -35 17 -38 17 -53 1 -22 -24 -20 -29 28 -50 50 -23 146 -26 185 -6 62 32
84 92 57 150 -18 37 -57 58 -134 71 -74 12 -103 63 -61 105 25 25 97 27 140 5
28 -14 30 -14 41 7 14 26 -3 42 -61 58 -46 13 -67 12 -115 -5z"/>
<path d="M8147 8842 c-10 -10 -17 -35 -17 -56 0 -29 -4 -39 -20 -43 -11 -3
-20 -13 -20 -23 0 -10 9 -20 20 -23 19 -5 20 -14 20 -126 l0 -121 25 0 25 0 0
125 0 125 30 0 c23 0 30 4 30 20 0 16 -7 20 -31 20 -28 0 -30 2 -27 33 2 27 8
33 31 35 21 3 27 9 27 28 0 21 -4 24 -38 24 -25 0 -45 -7 -55 -18z"/>
<path d="M8327 8842 c-10 -10 -17 -35 -17 -56 0 -29 -4 -39 -20 -43 -11 -3
-20 -13 -20 -23 0 -10 9 -20 20 -23 19 -5 20 -14 20 -126 l0 -121 25 0 25 0 0
125 0 125 30 0 c23 0 30 4 30 20 0 16 -7 20 -31 20 -28 0 -30 2 -27 33 2 27 8
33 31 35 21 3 27 9 27 28 0 21 -4 24 -38 24 -25 0 -45 -7 -55 -18z"/>
<path d="M7620 8785 c0 -33 -4 -45 -15 -45 -19 0 -20 -36 -1 -47 10 -6 15 -35
18 -104 3 -109 19 -139 70 -139 23 0 28 4 28 24 0 15 -7 26 -20 29 -18 5 -20
14 -20 96 0 84 1 91 20 91 15 0 20 7 20 25 0 18 -5 25 -20 25 -17 0 -20 7 -20
45 0 43 -1 45 -30 45 -29 0 -30 -2 -30 -45z"/>
<path d="M7854 8736 c-42 -18 -49 -33 -24 -46 14 -7 26 -8 39 0 48 25 101 1
101 -46 0 -23 -3 -24 -63 -24 -39 0 -70 -6 -84 -15 -46 -32 -36 -127 14 -146
32 -12 90 -11 114 1 13 7 19 7 19 0 0 -5 14 -10 30 -10 l30 0 0 100 c0 123
-14 164 -64 185 -43 18 -71 18 -112 1z"/>
<path d="M2565 9585 c-22 -8 -41 -15 -42 -15 -11 -1 -33 -67 -33 -98 0 -62 27
-87 113 -107 39 -9 80 -24 89 -32 19 -17 23 -50 10 -69 -24 -37 -107 -45 -164
-15 -35 17 -38 17 -53 1 -22 -24 -20 -29 28 -50 50 -23 146 -26 185 -6 62 32
84 92 57 150 -18 37 -57 58 -134 71 -74 12 -103 63 -61 105 25 25 97 27 140 5
28 -14 30 -14 41 7 14 26 -3 42 -61 58 -46 13 -67 12 -115 -5z"/>
<path d="M2902 9465 c-46 -20 -65 -70 -60 -158 3 -63 7 -72 36 -98 26 -23 42
-29 78 -29 44 0 104 22 104 39 0 20 -29 32 -49 22 -36 -20 -78 -13 -100 15
-38 48 -30 54 74 54 106 0 105 -1 84 72 -22 82 -92 117 -167 83z"/>
<path d="M3243 9460 c-27 -16 -33 -17 -33 -5 0 9 -10 15 -25 15 l-25 0 0 -145
0 -145 25 0 c25 0 25 0 25 99 0 55 3 107 6 116 9 23 49 36 78 25 19 -7 28 -4
42 12 18 19 18 20 -1 34 -26 19 -54 18 -92 -6z"/>
<path d="M3752 9465 c-46 -20 -65 -70 -60 -158 3 -63 7 -72 36 -98 26 -23 42
-29 78 -29 44 0 104 22 104 39 0 20 -29 32 -49 22 -36 -20 -78 -13 -100 15
-38 48 -30 54 74 54 106 0 105 -1 84 72 -22 82 -92 117 -167 83z"/>
<path d="M4413 9460 c-27 -16 -33 -17 -33 -5 0 9 -10 15 -25 15 l-25 0 0 -145
0 -145 25 0 c25 0 25 0 25 99 0 55 3 107 6 116 9 23 49 36 78 25 19 -7 28 -4
42 12 18 19 18 20 -1 34 -26 19 -54 18 -92 -6z"/>
<path d="M3383 9458 c2 -7 26 -73 53 -145 42 -113 52 -133 70 -133 18 0 29 20
73 138 28 75 51 141 51 145 0 5 -12 7 -27 5 -24 -3 -29 -12 -57 -95 -17 -50
-34 -95 -38 -98 -3 -4 -21 39 -39 94 -32 97 -34 101 -62 101 -19 0 -28 -4 -24
-12z"/>
<path d="M4000 9354 c0 -114 0 -116 29 -145 34 -34 93 -40 123 -12 17 15 18
15 18 0 0 -12 9 -17 30 -17 l30 0 0 145 0 145 -30 0 -30 0 0 -110 c0 -119 -5
-130 -64 -130 -43 0 -56 33 -56 142 0 98 0 98 -25 98 l-25 0 0 -116z"/>
<path d="M3555 8928 c-92 -259 -185 -523 -185 -526 0 -2 12 -2 26 0 25 3 32
18 115 253 49 138 92 258 95 268 4 13 0 17 -21 17 -14 0 -28 -6 -30 -12z"/>
<path d="M2475 8185 c-22 -8 -41 -15 -42 -15 -11 -1 -33 -67 -33 -98 0 -62 27
-87 113 -107 39 -9 80 -24 89 -32 19 -17 23 -50 10 -69 -24 -37 -107 -45 -164
-15 -35 17 -38 17 -53 1 -22 -24 -20 -29 28 -50 50 -23 146 -26 185 -6 62 32
84 92 57 150 -18 37 -57 58 -134 71 -74 12 -103 63 -61 105 25 25 97 27 140 5
28 -14 30 -14 41 7 14 26 -3 42 -61 58 -46 13 -67 12 -115 -5z"/>
<path d="M3350 8115 c0 -33 -4 -45 -15 -45 -19 0 -20 -36 -1 -47 10 -6 15 -35
18 -104 3 -109 19 -139 70 -139 23 0 28 4 28 24 0 15 -7 26 -20 29 -18 5 -20
14 -20 96 0 84 1 91 20 91 15 0 20 7 20 25 0 18 -5 25 -20 25 -17 0 -20 7 -20
45 0 43 -1 45 -30 45 -29 0 -30 -2 -30 -45z"/>
<path d="M3084 8070 c-31 -12 -54 -49 -54 -86 0 -41 39 -74 89 -75 77 -2 110
-29 81 -64 -17 -20 -99 -19 -128 1 -18 12 -26 13 -37 4 -24 -20 -18 -37 19
-54 66 -31 183 -14 200 29 3 9 6 32 6 51 0 49 -27 72 -98 80 -73 8 -86 15 -77
43 9 29 51 37 102 19 40 -14 43 -14 60 4 15 17 15 21 3 29 -41 26 -125 36
-166 19z"/>
<path d="M3592 8065 c-46 -20 -65 -70 -60 -158 3 -63 7 -72 36 -98 26 -23 42
-29 78 -29 44 0 104 22 104 39 0 20 -29 32 -49 22 -36 -20 -78 -13 -100 15
-38 48 -30 54 74 54 106 0 105 -1 84 72 -22 82 -92 117 -167 83z"/>
<path d="M3933 8060 c-27 -16 -33 -17 -33 -5 0 9 -10 15 -25 15 l-25 0 0 -145
0 -145 25 0 25 0 0 103 c0 118 9 140 58 140 56 0 62 -14 62 -134 l0 -109 30 0
29 0 3 112 c3 112 3 113 30 126 22 10 32 10 50 1 35 -19 38 -27 38 -136 l0
-103 25 0 25 0 0 119 c0 110 -2 122 -22 146 -14 15 -38 28 -59 31 -29 5 -41 1
-68 -22 -29 -24 -35 -26 -45 -13 -14 20 -50 39 -73 39 -10 0 -33 -9 -50 -20z"/>
<path d="M4402 8065 c-46 -20 -65 -70 -60 -158 3 -63 7 -72 36 -98 26 -23 42
-29 78 -29 44 0 104 22 104 39 0 20 -29 32 -49 22 -36 -20 -78 -13 -100 15
-38 48 -30 54 74 54 106 0 105 -1 84 72 -22 82 -92 117 -167 83z"/>
<path d="M2733 8058 c83 -223 98 -271 92 -296 -9 -36 -23 -52 -46 -52 -14 0
-19 -7 -19 -25 0 -21 5 -25 28 -25 16 0 36 6 45 13 12 9 147 370 147 393 0 2
-13 4 -28 4 -26 0 -29 -5 -56 -95 -16 -53 -32 -98 -36 -100 -4 -3 -23 40 -41
95 -32 96 -35 100 -62 100 -19 0 -28 -4 -24 -12z"/>
<path d="M3385 6864 c-272 -28 -501 -92 -720 -200 -166 -82 -293 -173 -420
-299 -164 -164 -268 -339 -322 -542 -23 -86 -26 -117 -26 -258 0 -141 3 -172
26 -258 54 -202 158 -377 322 -542 125 -125 253 -217 420 -299 184 -91 349
-143 580 -183 140 -24 500 -24 640 0 231 40 396 92 580 183 167 82 295 174
420 299 164 165 268 339 322 542 24 87 27 116 26 258 0 140 -3 172 -26 258
-54 202 -158 378 -322 542 -127 126 -254 217 -420 299 -183 90 -354 144 -575
181 -91 16 -420 28 -505 19z m505 -69 c387 -64 722 -227 961 -466 141 -141
231 -284 289 -457 123 -371 17 -764 -289 -1071 -240 -240 -568 -399 -966 -468
-139 -24 -499 -24 -640 1 -396 67 -726 227 -966 467 -141 141 -231 284 -289
457 -123 371 -17 764 289 1071 151 151 339 271 566 361 104 41 316 95 430 109
50 6 104 13 120 15 66 9 405 -4 495 -19z"/>
<path d="M2463 6183 c-58 -12 -93 -107 -78 -214 10 -69 38 -100 98 -106 54 -6
88 11 112 57 15 28 14 30 -4 30 -11 0 -31 -11 -45 -25 -30 -30 -69 -32 -96 -5
-17 17 -20 33 -20 98 0 94 15 122 65 122 24 0 39 -7 53 -25 23 -29 52 -33 52
-7 0 44 -79 87 -137 75z"/>
<path d="M3170 6020 c0 -153 1 -160 20 -160 11 0 20 4 20 9 0 5 13 4 30 -2 38
-14 80 0 98 33 19 36 11 143 -12 169 -20 22 -80 29 -91 11 -15 -24 -25 -6 -25
45 0 48 -2 55 -20 55 -19 0 -20 -7 -20 -160z"/>
<path d="M2720 6083 c-8 -3 -21 -10 -28 -16 -21 -16 7 -27 50 -20 40 6 68 -8
68 -33 0 -10 -14 -14 -48 -14 -65 0 -92 -20 -92 -69 0 -21 6 -44 14 -50 22
-18 81 -25 105 -12 14 8 21 8 21 1 0 -5 9 -10 20 -10 19 0 20 7 20 89 0 106
-13 130 -75 136 -22 3 -47 2 -55 -2z"/>
<path d="M3650 6077 c-54 -27 -69 -133 -26 -184 21 -24 32 -28 74 -28 56 0 89
19 71 41 -8 10 -16 11 -29 4 -29 -15 -65 -12 -83 8 -31 35 -21 42 58 42 84 0
89 6 60 75 -20 50 -74 68 -125 42z"/>
<path d="M4350 6077 c-54 -27 -69 -133 -26 -184 21 -24 32 -28 74 -28 56 0 89
19 71 41 -8 10 -16 11 -29 4 -29 -15 -65 -12 -83 8 -31 35 -21 42 58 42 84 0
89 6 60 75 -20 50 -74 68 -125 42z"/>
<path d="M4590 6083 c-30 -11 -50 -37 -50 -63 0 -33 16 -48 61 -56 78 -13 80
-14 77 -37 -2 -18 -11 -23 -41 -25 -23 -2 -48 3 -62 12 -23 15 -25 15 -35 -4
-8 -15 -6 -21 9 -29 37 -20 96 -23 134 -7 34 14 37 18 37 54 0 49 -11 58 -77
67 -58 8 -71 18 -53 40 14 17 67 20 90 5 14 -9 40 4 40 21 0 18 -96 34 -130
22z"/>
<path d="M4650 5575 c0 -19 -4 -35 -10 -35 -5 0 -10 -9 -10 -20 0 -11 5 -20
10 -20 6 0 10 -31 10 -73 0 -82 16 -117 56 -117 17 0 24 5 24 20 0 11 -7 20
-15 20 -12 0 -15 15 -15 75 0 60 3 75 15 75 8 0 15 9 15 20 0 11 -7 20 -15 20
-10 0 -15 11 -15 35 0 31 -3 35 -25 35 -22 0 -25 -4 -25 -35z"/>
<path d="M2190 5527 c-54 -27 -69 -133 -26 -184 21 -24 32 -28 74 -28 56 0 89
19 71 41 -8 10 -16 11 -29 4 -29 -15 -65 -12 -83 8 -31 35 -21 42 58 42 84 0
89 6 60 75 -20 50 -74 68 -125 42z"/>
<path d="M2401 5514 c-16 -21 -21 -41 -21 -89 0 -79 24 -115 75 -115 19 0 37
5 40 10 15 24 25 6 25 -45 0 -48 2 -55 20 -55 19 0 20 7 20 160 0 151 -1 160
-19 160 -11 0 -21 -6 -24 -12 -4 -10 -7 -10 -18 0 -24 22 -75 15 -98 -14z"/>
<path d="M2640 5447 c0 -85 2 -96 23 -115 26 -24 75 -29 96 -9 11 10 14 10 18
0 3 -7 13 -13 24 -13 18 0 19 8 19 115 0 108 -1 115 -20 115 -18 0 -20 -7 -20
-76 0 -90 -10 -114 -48 -114 -44 0 -52 16 -52 107 0 76 -2 83 -20 83 -19 0
-20 -7 -20 -93z"/>
<path d="M3010 5380 c0 -153 1 -160 20 -160 18 0 20 7 20 54 l0 54 30 -11 c38
-14 80 0 98 33 19 36 11 143 -12 169 -21 24 -74 28 -95 9 -11 -10 -14 -10 -18
0 -3 6 -13 12 -24 12 -18 0 -19 -9 -19 -160z"/>
<path d="M3260 5380 c0 -153 1 -160 20 -160 18 0 20 7 20 54 l0 54 30 -11 c38
-14 80 0 98 33 19 36 11 143 -12 169 -21 24 -74 28 -95 9 -11 -10 -14 -10 -18
0 -3 6 -13 12 -24 12 -18 0 -19 -9 -19 -160z"/>
<path d="M3550 5527 c-54 -27 -69 -133 -26 -184 21 -24 32 -28 74 -28 56 0 89
19 71 41 -8 10 -16 11 -29 4 -29 -15 -65 -12 -83 8 -31 35 -21 42 58 42 84 0
89 6 60 75 -20 50 -74 68 -125 42z"/>
<path d="M3750 5425 c0 -108 1 -115 20 -115 18 0 20 7 20 83 0 91 8 107 52
107 37 0 48 -28 48 -121 0 -62 2 -69 20 -69 18 0 20 7 20 83 0 87 8 107 45
107 37 0 45 -20 45 -107 0 -83 0 -83 26 -83 l26 0 -4 94 c-2 75 -7 98 -22 115
-25 27 -79 28 -105 2 -19 -19 -20 -19 -37 0 -20 22 -73 26 -93 7 -11 -10 -14
-10 -18 0 -3 6 -13 12 -24 12 -18 0 -19 -8 -19 -115z"/>
<path d="M4190 5527 c-54 -27 -69 -133 -26 -184 21 -24 32 -28 74 -28 56 0 89
19 71 41 -8 10 -16 11 -29 4 -29 -15 -65 -12 -83 8 -31 35 -21 42 58 42 84 0
89 6 60 75 -20 50 -74 68 -125 42z"/>
<path d="M4390 5425 c0 -108 1 -115 20 -115 18 0 20 7 20 83 0 91 8 107 52
107 38 0 48 -24 48 -114 0 -69 2 -76 20 -76 18 0 20 7 20 89 0 74 -3 92 -21
115 -23 29 -74 36 -98 14 -11 -10 -14 -10 -18 0 -3 6 -13 12 -24 12 -18 0 -19
-8 -19 -115z"/>
<path d="M4840 5533 c-30 -11 -50 -37 -50 -63 0 -33 16 -48 61 -56 78 -13 80
-14 77 -37 -2 -18 -11 -23 -41 -25 -23 -2 -48 3 -62 12 -23 15 -25 15 -35 -4
-8 -15 -6 -21 9 -29 37 -20 96 -23 134 -7 34 14 37 18 37 54 0 49 -11 58 -77
67 -58 8 -71 18 -53 40 14 17 67 20 90 5 14 -9 40 4 40 21 0 18 -96 34 -130
22z"/>
<path d="M7105 6864 c-272 -28 -501 -92 -720 -200 -166 -82 -293 -173 -420
-299 -164 -164 -268 -340 -322 -542 -23 -85 -26 -119 -27 -258 0 -145 2 -169
27 -259 57 -207 158 -377 322 -541 211 -212 479 -358 804 -440 192 -49 282
-59 516 -59 234 0 324 10 516 59 223 56 442 154 609 273 117 82 277 241 348
345 106 153 179 347 197 520 6 62 8 67 27 61 12 -4 24 -1 29 7 11 18 2 29 -25
29 -22 0 -24 5 -30 86 -15 183 -87 379 -198 541 -70 103 -231 262 -348 345
-107 76 -315 183 -434 223 -106 35 -251 71 -366 90 -91 16 -420 28 -505 19z
m505 -69 c724 -120 1250 -588 1296 -1149 6 -76 5 -86 -10 -86 -15 0 -17 -14
-15 -122 1 -114 -2 -129 -30 -207 -61 -166 -147 -298 -286 -436 -236 -235
-567 -394 -960 -462 -140 -24 -500 -24 -640 0 -613 106 -1079 442 -1245 896
-36 99 -37 113 -5 128 14 6 25 7 25 2 0 -5 9 -9 20 -9 19 0 20 7 20 151 0 138
-1 150 -17 147 -14 -2 -19 -16 -23 -58 -3 -33 -8 -50 -13 -42 -5 6 -22 12 -39
12 l-31 0 7 86 c41 508 483 949 1111 1109 72 18 171 38 220 44 50 6 104 13
120 15 66 9 405 -4 495 -19z"/>
<path d="M6225 6141 c-44 -18 -60 -50 -63 -125 -6 -118 25 -166 109 -166 30 0
89 46 89 69 0 19 -35 12 -48 -9 -18 -29 -76 -27 -96 2 -19 27 -22 129 -5 161
24 45 64 50 99 12 24 -26 50 -33 50 -14 0 22 -22 49 -50 64 -32 16 -55 18 -85
6z"/>
<path d="M6441 6034 c-15 -20 -21 -41 -21 -81 0 -68 29 -103 85 -103 56 0 85
35 85 103 0 75 -25 107 -85 107 -35 0 -48 -5 -64 -26z"/>
<path d="M6923 6050 c-30 -12 -43 -41 -43 -97 0 -58 19 -89 60 -98 30 -7 100
10 100 24 0 17 -24 30 -36 20 -20 -16 -65 -6 -82 19 l-14 22 72 0 73 0 -6 38
c-11 64 -65 96 -124 72z"/>
<path d="M7131 6034 c-32 -40 -29 -126 4 -159 28 -28 89 -34 120 -12 29 22 10
38 -36 31 -53 -9 -69 6 -69 67 0 42 3 51 24 60 17 8 29 8 44 0 21 -11 52 -6
52 10 0 15 -38 29 -79 29 -31 0 -44 -6 -60 -26z"/>
<path d="M7493 6050 c-30 -12 -43 -41 -43 -97 0 -58 19 -89 60 -98 30 -7 100
10 100 24 0 17 -24 30 -36 20 -20 -16 -65 -6 -82 19 l-14 22 72 0 73 0 -6 38
c-11 64 -65 96 -124 72z"/>
<path d="M8133 6050 c-30 -12 -43 -41 -43 -97 0 -58 19 -89 60 -98 30 -7 100
10 100 24 0 17 -24 30 -36 20 -20 -16 -65 -6 -82 19 l-14 22 72 0 73 0 -6 38
c-11 64 -65 96 -124 72z"/>
<path d="M8340 6047 c-30 -15 -39 -67 -16 -86 8 -7 36 -16 63 -19 39 -6 48
-11 48 -27 0 -16 -8 -21 -37 -23 -20 -2 -46 2 -57 7 -14 8 -22 7 -32 -5 -16
-20 -1 -31 56 -39 80 -12 136 37 101 90 -11 16 -26 25 -44 25 -46 0 -73 11
-70 29 3 12 16 16 57 16 62 0 78 17 30 34 -41 14 -68 14 -99 -2z"/>
<path d="M7447 5643 c-4 -3 -7 -29 -7 -57 0 -39 -3 -47 -12 -38 -21 21 -75 15
-92 -10 -24 -35 -22 -142 4 -168 22 -22 69 -27 88 -8 9 9 12 9 12 0 0 -7 9
-12 20 -12 19 0 20 7 20 150 0 118 -3 150 -13 150 -8 0 -17 -3 -20 -7z"/>
<path d="M5871 5534 c-15 -20 -21 -41 -21 -81 0 -68 29 -103 85 -103 56 0 85
35 85 103 0 75 -25 107 -85 107 -35 0 -48 -5 -64 -26z"/>
<path d="M6080 5455 c0 -98 1 -105 20 -105 18 0 20 7 20 74 0 94 21 122 71 96
16 -9 19 -22 19 -90 0 -73 2 -80 20 -80 18 0 20 7 20 83 0 99 -14 127 -64 127
-17 0 -38 -6 -45 -12 -11 -10 -14 -10 -18 0 -3 6 -13 12 -24 12 -18 0 -19 -8
-19 -105z"/>
<path d="M6310 5455 c0 -98 1 -105 20 -105 18 0 20 7 20 74 0 94 21 122 71 96
16 -9 19 -22 19 -90 0 -73 2 -80 20 -80 18 0 20 7 20 83 0 99 -14 127 -64 127
-17 0 -38 -6 -45 -12 -11 -10 -14 -10 -18 0 -3 6 -13 12 -24 12 -18 0 -19 -8
-19 -105z"/>
<path d="M6583 5550 c-30 -12 -43 -41 -43 -97 0 -58 19 -89 60 -98 30 -7 100
10 100 24 0 17 -24 30 -36 20 -20 -16 -65 -6 -82 19 l-14 22 72 0 73 0 -6 38
c-11 64 -65 96 -124 72z"/>
<path d="M6813 5550 c-30 -12 -43 -41 -43 -97 0 -58 19 -89 60 -98 30 -7 100
10 100 24 0 17 -24 30 -36 20 -20 -16 -65 -6 -82 19 l-14 22 72 0 73 0 -6 38
c-11 64 -65 96 -124 72z"/>
<path d="M7020 5547 c-30 -15 -39 -67 -16 -86 8 -7 36 -16 63 -19 39 -6 48
-11 48 -27 0 -16 -8 -21 -37 -23 -20 -2 -46 2 -57 7 -14 8 -22 7 -32 -5 -16
-20 -1 -31 56 -39 80 -12 136 37 101 90 -11 16 -26 25 -44 25 -46 0 -73 11
-70 29 3 12 16 16 57 16 62 0 78 17 30 34 -41 14 -68 14 -99 -2z"/>
<path d="M7583 5550 c-30 -12 -43 -41 -43 -97 0 -58 19 -89 60 -98 30 -7 100
10 100 24 0 17 -24 30 -36 20 -20 -16 -65 -6 -82 19 l-14 22 72 0 73 0 -6 38
c-11 64 -65 96 -124 72z"/>
<path d="M7910 5547 c-30 -15 -39 -67 -16 -86 8 -7 36 -16 63 -19 39 -6 48
-11 48 -27 0 -16 -8 -21 -37 -23 -20 -2 -46 2 -57 7 -14 8 -22 7 -32 -5 -16
-20 -1 -31 56 -39 80 -12 136 37 101 90 -11 16 -26 25 -44 25 -46 0 -73 11
-70 29 3 12 16 16 57 16 62 0 78 17 30 34 -41 14 -68 14 -99 -2z"/>
<path d="M8133 5550 c-30 -12 -43 -41 -43 -97 0 -58 19 -89 60 -98 30 -7 100
10 100 24 0 17 -24 30 -36 20 -20 -16 -65 -6 -82 19 l-14 22 72 0 73 0 -6 38
c-11 64 -65 96 -124 72z"/>
<path d="M8451 5534 c-15 -20 -21 -41 -21 -81 0 -68 29 -103 85 -103 56 0 85
35 85 103 0 75 -25 107 -85 107 -35 0 -48 -5 -64 -26z"/>
<path d="M8652 5475 c3 -63 9 -89 23 -105 20 -22 55 -26 86 -10 13 7 19 7 19
0 0 -5 9 -10 20 -10 19 0 20 7 20 105 0 98 -1 105 -20 105 -17 0 -19 -8 -22
-82 -3 -83 -3 -83 -31 -86 -46 -6 -57 12 -57 94 0 69 -2 74 -21 74 -21 0 -21
-4 -17 -85z"/>
<path d="M5032 4349 c-490 -44 -945 -222 -1250 -491 -196 -173 -316 -358 -374
-581 -31 -117 -31 -327 0 -444 92 -352 365 -647 783 -847 657 -314 1513 -314
2168 0 418 200 691 495 783 847 31 117 31 327 0 444 -44 170 -117 305 -241
448 -383 442 -1126 690 -1869 624z m468 -49 c798 -69 1421 -465 1587 -1007 24
-79 26 -104 26 -238 0 -134 -2 -159 -26 -238 -79 -258 -253 -478 -521 -657
-713 -478 -1869 -478 -2582 0 -268 179 -442 399 -521 657 -24 79 -26 104 -26
238 0 134 2 159 26 238 79 259 252 477 521 657 397 266 967 397 1516 350z"/>
<path d="M3695 3338 c-66 -175 -101 -284 -94 -286 20 -8 37 8 44 37 6 31 7 31
69 31 63 0 63 0 72 -32 7 -23 17 -34 33 -36 27 -4 30 -19 -37 163 -33 91 -53
131 -65 133 -9 2 -19 -2 -22 -10z"/>
<path d="M3901 3234 c-32 -40 -29 -126 4 -159 28 -28 89 -34 120 -12 29 22 10
38 -36 31 -53 -9 -69 6 -69 67 0 42 3 51 24 60 17 8 29 8 44 0 21 -11 52 -6
52 10 0 15 -38 29 -79 29 -31 0 -44 -6 -60 -26z"/>
<path d="M4111 3234 c-32 -40 -29 -126 4 -159 28 -28 89 -34 120 -12 29 22 10
38 -36 31 -53 -9 -69 6 -69 67 0 42 3 51 24 60 17 8 29 8 44 0 21 -11 52 -6
52 10 0 15 -38 29 -79 29 -31 0 -44 -6 -60 -26z"/>
<path d="M4321 3234 c-15 -20 -21 -41 -21 -81 0 -68 29 -103 85 -103 56 0 85
35 85 103 0 75 -25 107 -85 107 -35 0 -48 -5 -64 -26z"/>
<path d="M4520 3155 c0 -98 1 -105 20 -105 18 0 20 7 20 74 0 76 13 106 45
106 32 0 45 -30 45 -106 0 -67 2 -74 20 -74 18 0 20 7 20 80 0 77 1 81 26 92
23 11 29 10 45 -11 15 -18 19 -40 19 -92 0 -64 2 -69 21 -69 21 0 21 4 17 85
-3 63 -9 89 -23 105 -22 24 -77 27 -95 5 -11 -13 -15 -13 -33 0 -26 18 -68 19
-86 3 -11 -10 -14 -10 -18 0 -3 6 -13 12 -24 12 -18 0 -19 -8 -19 -105z"/>
<path d="M4880 3115 c0 -138 1 -145 20 -145 17 0 20 7 20 50 0 47 11 63 25 40
13 -21 63 -11 85 18 19 23 21 37 18 91 -3 47 -9 67 -23 77 -23 17 -67 18 -84
2 -11 -10 -14 -10 -18 0 -3 6 -13 12 -24 12 -18 0 -19 -9 -19 -145z"/>
<path d="M5142 3248 c-36 -18 -20 -33 34 -33 42 0 49 -3 52 -21 3 -19 -3 -22
-48 -26 -60 -6 -73 -16 -73 -58 0 -45 15 -54 93 -57 l70 -2 0 84 c0 78 -2 85
-26 104 -29 23 -66 26 -102 9z"/>
<path d="M5346 3238 c-24 -35 -22 -142 4 -168 22 -22 69 -26 89 -7 10 10 12 6
9 -17 -4 -40 -29 -54 -68 -39 -26 10 -32 9 -37 -4 -15 -38 93 -48 127 -11 18
19 20 35 20 145 0 116 -1 123 -20 123 -11 0 -20 -5 -20 -12 0 -9 -3 -9 -12 0
-21 21 -75 15 -92 -10z"/>
<path d="M5550 3155 c0 -98 1 -105 20 -105 18 0 20 7 20 74 0 94 21 122 71 96
16 -9 19 -22 19 -90 0 -73 2 -80 20 -80 18 0 20 7 20 83 0 99 -14 127 -64 127
-17 0 -38 -6 -45 -12 -11 -10 -14 -10 -18 0 -3 6 -13 12 -24 12 -18 0 -19 -8
-19 -105z"/>
<path d="M5833 3250 c-30 -12 -43 -41 -43 -97 0 -58 19 -89 60 -98 30 -7 100
10 100 24 0 17 -24 30 -36 20 -20 -16 -65 -6 -82 19 l-14 22 72 0 73 0 -6 38
c-11 64 -65 96 -124 72z"/>
<path d="M6010 3155 c0 -98 1 -105 20 -105 18 0 20 7 20 74 0 76 13 106 45
106 32 0 45 -30 45 -106 0 -67 2 -74 20 -74 18 0 20 7 20 80 0 77 1 81 26 92
23 11 29 10 45 -11 15 -18 19 -40 19 -92 0 -64 2 -69 21 -69 21 0 21 4 17 85
-3 63 -9 89 -23 105 -22 24 -77 27 -95 5 -11 -13 -15 -13 -33 0 -26 18 -68 19
-86 3 -11 -10 -14 -10 -18 0 -3 6 -13 12 -24 12 -18 0 -19 -8 -19 -105z"/>
<path d="M6413 3250 c-30 -12 -43 -41 -43 -97 0 -58 19 -89 60 -98 30 -7 100
10 100 24 0 17 -24 30 -36 20 -20 -16 -65 -6 -82 19 l-14 22 72 0 73 0 -6 38
c-11 64 -65 96 -124 72z"/>
<path d="M6590 3155 c0 -98 1 -105 20 -105 18 0 20 7 20 74 0 94 21 122 71 96
16 -9 19 -22 19 -90 0 -73 2 -80 20 -80 18 0 20 7 20 83 0 99 -14 127 -64 127
-17 0 -38 -6 -45 -12 -11 -10 -14 -10 -18 0 -3 6 -13 12 -24 12 -18 0 -19 -8
-19 -105z"/>
<path d="M4130 2700 c0 -143 1 -150 20 -150 18 0 20 7 20 60 l0 60 45 0 c55 0
90 15 104 47 22 48 6 103 -36 122 -13 6 -53 11 -88 11 l-65 0 0 -150z"/>
<path d="M4403 2750 c-30 -12 -43 -41 -43 -97 0 -58 19 -89 60 -98 30 -7 100
10 100 24 0 17 -24 30 -36 20 -20 -16 -65 -6 -82 19 l-14 22 72 0 73 0 -6 38
c-11 64 -65 96 -124 72z"/>
<path d="M4800 2747 c-30 -15 -39 -67 -16 -86 8 -7 36 -16 63 -19 39 -6 48
-11 48 -27 0 -16 -8 -21 -37 -23 -20 -2 -46 2 -57 7 -14 8 -22 7 -32 -5 -16
-20 -1 -31 56 -39 80 -12 136 37 101 90 -11 16 -26 25 -44 25 -46 0 -73 11
-70 29 3 12 16 16 57 16 62 0 78 17 30 34 -41 14 -68 14 -99 -2z"/>
<path d="M5001 2734 c-15 -20 -21 -41 -21 -81 0 -68 29 -103 85 -103 56 0 85
35 85 103 0 75 -25 107 -85 107 -35 0 -48 -5 -64 -26z"/>
<path d="M5210 2655 c0 -98 1 -105 20 -105 18 0 20 7 20 74 0 94 21 122 71 96
16 -9 19 -22 19 -90 0 -73 2 -80 20 -80 18 0 20 7 20 83 0 99 -14 127 -64 127
-17 0 -38 -6 -45 -12 -11 -10 -14 -10 -18 0 -3 6 -13 12 -24 12 -18 0 -19 -8
-19 -105z"/>
<path d="M5440 2655 c0 -98 1 -105 20 -105 18 0 20 7 20 74 0 94 21 122 71 96
16 -9 19 -22 19 -90 0 -73 2 -80 20 -80 18 0 20 7 20 83 0 99 -14 127 -64 127
-17 0 -38 -6 -45 -12 -11 -10 -14 -10 -18 0 -3 6 -13 12 -24 12 -18 0 -19 -8
-19 -105z"/>
<path d="M5702 2748 c-36 -18 -20 -33 34 -33 42 0 49 -3 52 -21 3 -19 -3 -22
-48 -26 -60 -6 -73 -16 -73 -58 0 -45 15 -54 93 -57 l70 -2 0 84 c0 78 -2 85
-26 104 -29 23 -66 26 -102 9z"/>
<path d="M6150 2747 c-30 -15 -39 -67 -16 -86 8 -7 36 -16 63 -19 39 -6 48
-11 48 -27 0 -16 -8 -21 -37 -23 -20 -2 -46 2 -57 7 -14 8 -22 7 -32 -5 -16
-20 -1 -31 56 -39 80 -12 136 37 101 90 -11 16 -26 25 -44 25 -46 0 -73 11
-70 29 3 12 16 16 57 16 62 0 78 17 30 34 -41 14 -68 14 -99 -2z"/>
<path d="M6383 2750 c-30 -12 -43 -41 -43 -97 0 -58 19 -89 60 -98 30 -7 100
10 100 24 0 17 -24 30 -36 20 -20 -16 -65 -6 -82 19 l-14 22 72 0 73 0 -6 38
c-11 64 -65 96 -124 72z"/>
</g>
</svg>
